<svg xmlns="http://www.w3.org/2000/svg" viewBox="0 0 26.288 26.289">
  <defs>
    <style>
      .cls-1 {
        fill: #3db39e;
      }
    </style>
  </defs>
  <path id="Path_36" data-name="Path 36" class="cls-1" d="M13.148,0A13.144,13.144,0,1,0,26.292,13.144,13.144,13.144,0,0,0,13.148,0Zm0,23.824a10.68,10.68,0,1,1,10.679-10.68A10.68,10.68,0,0,1,13.148,23.824ZM18.314,7.553A1.144,1.144,0,0,0,16.72,8l-4.408,7.917L9.858,12.926a1.235,1.235,0,0,0-1.593-.444,1.215,1.215,0,0,0-.428,1.655l3.416,4.158a1.441,1.441,0,0,0,.852.587l0,0,.031,0a1.49,1.49,0,0,0,1.545-.594l5.059-9.087A1.238,1.238,0,0,0,18.314,7.553Z" transform="translate(-0.004)"/>
</svg>
