<svg id="clock-circular-outline" xmlns="http://www.w3.org/2000/svg" viewBox="0 0 19.16 19.16">
  <defs>
    <style>
      .cls-1 {
        fill: #ffb677;
      }
    </style>
  </defs>
  <g id="Group_1128" data-name="Group 1128">
    <path id="Path_242" data-name="Path 242" class="cls-1" d="M9.58,0a9.58,9.58,0,1,0,9.58,9.58A9.591,9.591,0,0,0,9.58,0Zm0,17.122A7.542,7.542,0,1,1,17.122,9.58,7.55,7.55,0,0,1,9.58,17.122Z"/>
    <path id="Path_243" data-name="Path 243" class="cls-1" d="M49.949,22.8H45.644V17.619a.789.789,0,0,0-1.578,0v5.965a.789.789,0,0,0,.789.789h5.094a.789.789,0,0,0,0-1.578Z" transform="translate(-35.376 -13.511)"/>
  </g>
</svg>
