<?xml version="1.0"?>
<svg xmlns="http://www.w3.org/2000/svg" xmlns:xlink="http://www.w3.org/1999/xlink" version="1.1" viewBox="0 0 224 224" width="32px" height="32px"><g fill="none" fill-rule="nonzero" stroke="none" stroke-width="1" stroke-linecap="butt" stroke-linejoin="miter" stroke-miterlimit="10" stroke-dasharray="" stroke-dashoffset="0" font-family="none" font-weight="none" font-size="none" text-anchor="none" style="mix-blend-mode: normal"><path d="M0,224v-224h224v224z" fill="none"/><g fill="#ffb677"><g id="surface1"><path d="M112,28c-26.98828,0 -49,22.01172 -49,49c0,16.76172 8.53125,31.63672 21.4375,40.46875c-25.04687,10.66407 -42.4375,35.54688 -42.4375,64.53125h14c0,-31.25391 24.74609,-56 56,-56c31.25391,0 56,24.74609 56,56h14c0,-28.98437 -17.39062,-53.86718 -42.4375,-64.53125c12.90625,-8.83203 21.4375,-23.70703 21.4375,-40.46875c0,-26.98828 -22.01172,-49 -49,-49zM112,42c19.41407,0 35,15.58594 35,35c0,19.41407 -15.58593,35 -35,35c-19.41406,0 -35,-15.58593 -35,-35c0,-19.41406 15.58594,-35 35,-35z"/></g></g></g></svg>
