<svg xmlns="http://www.w3.org/2000/svg" viewBox="0 0 18.753 18.71">
  <defs>
    <style>
      .cls-1 {
        fill: #ffb677;
      }
    </style>
  </defs>
  <g id="call-answer" transform="translate(0 -0.394)">
    <g id="Group_1130" data-name="Group 1130" transform="translate(0 0.394)">
      <g id="Group_1129" data-name="Group 1129" transform="translate(0 0)">
        <path id="Path_244" data-name="Path 244" class="cls-1" d="M18.332,15.192l-2.9-2.9a1.51,1.51,0,0,0-2.129.04l-1.459,1.459-.288-.16A14.519,14.519,0,0,1,8.05,11.1,14.6,14.6,0,0,1,5.507,7.581c-.054-.1-.106-.192-.157-.281l.979-.978.481-.482A1.509,1.509,0,0,0,6.85,3.711l-2.9-2.9a1.508,1.508,0,0,0-2.129.04l-.816.821.022.022A4.72,4.72,0,0,0,.358,2.883a4.919,4.919,0,0,0-.3,1.2c-.382,3.17,1.066,6.068,5,10,5.435,5.434,9.814,5.024,10,5a4.893,4.893,0,0,0,1.207-.3,4.7,4.7,0,0,0,1.182-.67l.018.016.827-.81A1.511,1.511,0,0,0,18.332,15.192Z" transform="translate(0 -0.394)"/>
      </g>
    </g>
  </g>
</svg>
